<svg xmlns="http://www.w3.org/2000/svg" width="115" height="115" viewBox="0 0 115 115"><defs><style>.a,.c{fill:#b1cf56;}.b{fill:none;stroke-width:2px;}.b,.c{stroke:#b1cf56;stroke-miterlimit:10;}</style></defs><path class="a" d="M98.154,16.846a57.479,57.479,0,0,0-81.309,0,57.479,57.479,0,0,0,0,81.309,57.479,57.479,0,0,0,81.309,0,57.479,57.479,0,0,0,0-81.309ZM57.5,108.262A50.762,50.762,0,1,1,108.262,57.5,50.824,50.824,0,0,1,57.5,108.262Z" transform="translate(0 0)"/><g transform="translate(28.673 19.055)"><path class="b" d="M297.433,329.444l-9.164-7.322a1.542,1.542,0,0,0-2.179.247l-18.373,22.82a1.554,1.554,0,0,0,.2,2.156l8.019,6.918" transform="translate(-235.992 -268.561)"/><path class="b" d="M177.733,190.593l-3.324-2.74a2.221,2.221,0,0,1-.764-1.325c-.584-3.571-4.178-17.115-1.55-19.878,1.864-1.977,6.738-7.345,6.761-10.646.045-4.515-6.828-5.368-13.117-.674a14.365,14.365,0,0,0-4.627,6.064c-1.123,2.7-2.7,6.94-2.718,9.187a.285.285,0,0,1-.449.225L134.473,152.14s-3.257-2.516-5.525,0c-2.246,2.516-.876,4.649-.876,4.649l13.836,11.837a.82.82,0,0,1-.449,1.438,4.491,4.491,0,0,0-3.234,1.774c-1.415,1.8-.382,3.841.584,5.121a.555.555,0,0,1-.517.876c-1.55-.247-3.729-.225-4.582,1.55-1.078,2.246.359,5.1,1.056,6.244a.267.267,0,0,1-.27.4c-1.527-.2-5.413-.27-4.964,4.56a2.939,2.939,0,0,0,.943,1.909l15.273,14.2s6.334,3.684,9.164,2.9a.831.831,0,0,1,.719.157l4.021,3.3" transform="translate(-127.658 -136.157)"/><path class="c" d="M276.909,88.888,261.231,101.8a.824.824,0,0,1-1.168-.112l-.225-.27a.824.824,0,0,1,.112-1.168l15.678-12.915a.824.824,0,0,1,1.168.112l.225.27A.844.844,0,0,1,276.909,88.888Z" transform="translate(-230.001 -86.628)"/><path class="c" d="M192.324,116.432l7.569,6.379a.842.842,0,0,1,.09,1.168l-.225.27a.842.842,0,0,1-1.168.09l-7.569-6.379a.842.842,0,0,1-.09-1.168l.225-.27A.842.842,0,0,1,192.324,116.432Z" transform="translate(-176.57 -109.185)"/><path class="c" d="M155.024,85.032l3.8,3.212a.842.842,0,0,1,.09,1.168l-.225.27a.842.842,0,0,1-1.168.09l-3.8-3.212a.842.842,0,0,1-.09-1.168l.225-.27A.844.844,0,0,1,155.024,85.032Z" transform="translate(-147.648 -84.838)"/></g></svg>