<svg xmlns="http://www.w3.org/2000/svg" width="115" height="115" viewBox="0 0 115 115"><defs><style>.a{fill:#b1cf56;}</style></defs><path class="a" d="M98.159,16.841A57.5,57.5,0,0,0,16.841,98.159,57.5,57.5,0,0,0,98.159,16.841ZM57.5,108.262A50.762,50.762,0,1,1,108.262,57.5,50.819,50.819,0,0,1,57.5,108.262Z"/><g transform="translate(39.755 21.772)"><path class="a" d="M198.075,128.771h-7.194a7.432,7.432,0,1,1,0-14.864h14.387a3.358,3.358,0,0,0,0-6.716h-7.432V99.759a3.358,3.358,0,0,0-6.716,0v7.432h-.239a14.148,14.148,0,1,0,0,28.3h7.194a7.432,7.432,0,0,1,0,14.864H183.689a3.358,3.358,0,1,0,0,6.716h7.432V164.5a3.358,3.358,0,0,0,6.716,0v-7.432h.239a14.148,14.148,0,0,0,0-28.3Z" transform="translate(-176.734 -96.401)"/></g></svg>