<svg xmlns="http://www.w3.org/2000/svg" width="115" height="115" viewBox="0 0 115 115"><defs><style>.a,.b{fill:#b1cf56;}.b{stroke:#b1cf56;stroke-miterlimit:10;}</style></defs><path class="a" d="M98.154,16.846a57.479,57.479,0,0,0-81.309,0,57.479,57.479,0,0,0,0,81.309,57.479,57.479,0,0,0,81.309,0,57.479,57.479,0,0,0,0-81.309ZM57.5,108.262A50.762,50.762,0,1,1,108.262,57.5,50.824,50.824,0,0,1,57.5,108.262Z" transform="translate(0 0)"/><g transform="translate(25.965 21.854)"><path class="b" d="M120.047,251.322c-2.313,0-4.447,1.3-4.447,3.526v11.59a4.531,4.531,0,0,0,4.447,4.357h5.75V251.3h-5.75Z" transform="translate(-115.6 -216.71)"/><path class="b" d="M245.984,350.7a5.93,5.93,0,1,0,.09,11.859,6.305,6.305,0,0,0,4.357-1.752,5.5,5.5,0,0,0,1.482-4.088A6.015,6.015,0,0,0,245.984,350.7Z" transform="translate(-212.136 -293.784)"/><path class="b" d="M359.929,251.4H355.1v19.5h4.829c1.011,0,4.447-.382,4.447-3.437V255.87A4.8,4.8,0,0,0,359.929,251.4Z" transform="translate(-301.306 -216.788)"/><path class="b" d="M189.489,123.287v6.783h2.785v-6.783a25.987,25.987,0,1,0-51.975,0v6.783h2.785v-6.783a23.2,23.2,0,1,1,46.4,0Z" transform="translate(-134.752 -97.3)"/><path class="b" d="M312.813,333.024a15.524,15.524,0,0,1-13.634,6.042l-.18,2.7h1.662a17.757,17.757,0,0,0,14.375-7.143l2.4-3.347-2.224-1.572Z" transform="translate(-257.807 -277.501)"/></g></svg>